<svg id="Layer_1" data-name="Layer 1" xmlns="http://www.w3.org/2000/svg" viewBox="0 0 444.25 299.43"><defs><style>.cls-1{fill:#13da7d;}</style></defs><title>isotipo</title><path class="cls-1" d="M11624.88,395.3c-1.27-1.21-4.65-4.41-22-3.54H11569c-9.53-2.42-17-8-25.31-14.13-12.6-9.36-26.88-20-50.64-20-36,0-50.37,18.31-72.15,46-2.37,3-4.83,6.14-7.4,9.35-1.79-2.14-3.66-4.21-5.65-6.2-45.25-45.18-135.62-45.07-208.22-45h-10.05a6.53,6.53,0,0,0,0,13.06c23.83,0,41.13,26.72,61.17,57.66,17.77,27.43,37.13,57.33,65,73.9-38.74,34-72.82,72-72.82,129.08v15a6.53,6.53,0,1,0,13.05,0c0-33.79,33.79-43.07,88.91-55.4,42-9.4,89.6-20,120.63-51.07,20.62-20.62,34.55-47.44,46.84-71.1,16.42-31.62,30.87-59.42,56.31-65.59h52.13a6.53,6.53,0,0,0,6.53-6.53A7.63,7.63,0,0,0,11624.88,395.3Zm-193.71,16.45c20.8-26.46,32.26-41,61.89-41,19.44,0,30.81,8.45,42.86,17.39,3.59,2.67,7.22,5.35,11.07,7.82a122.45,122.45,0,0,0-43.25,16.65c-18.36,11.6-31.33,26.83-43.88,41.56-7.55,8.86-15,17.56-23.4,25.24-0.52-21.34-5.59-39.85-15-55.33C11424.92,419.7,11428.16,415.58,11431.17,411.76Zm-7.72,71.37q0,3.4-.21,6.67c-15,10-33.69,16.54-60.43,16.54a78.5,78.5,0,0,1-23-3.33l7.42-6.23c15-12.6,30.58-25.63,44.43-39.48,7.88-7.88,14.75-15.47,20.85-22.6C11419.84,448.22,11423.44,464.23,11423.44,483.12Zm-161.73-57.63c-12.68-19.58-24.94-38.51-39.37-50.55,65.41,0.32,139.24,4.13,176.29,41.13a81.92,81.92,0,0,1,6.44,7.26c-6.51,7.75-13.86,16-22.61,24.74-13.44,13.44-28.76,26.28-43.58,38.7q-6.32,5.29-12.64,10.64C11299.07,483.17,11280.16,454,11261.71,425.5ZM11342,582.43c-33.69,7.54-66.14,14.8-84.28,32.12,7.37-42.32,36.69-72.46,70.62-101.76a90.31,90.31,0,0,0,34.45,6.61c24.48,0,43-5,58.06-12.94-9.46,42.06-41.85,65.85-44.71,67.87C11364.69,577.35,11353.15,579.94,11342,582.43ZM11500.75,467c-12.43,23.94-25.29,48.69-44.48,67.89-13.88,13.88-31.92,23.41-51.43,30.58,12.89-14.81,27.41-37.75,30.88-68.45,13.3-10,23.76-22.3,34.07-34.39,17.83-20.92,34.94-41,66.16-50.61C11522,426,11511.55,446.16,11500.75,467Z" transform="translate(-11183.06 -357.66)"/></svg>